<?xml version="1.0" encoding="utf-8"?>
<!-- Generator: Adobe Illustrator 18.1.1, SVG Export Plug-In . SVG Version: 6.00 Build 0)  -->
<svg version="1.1" id="Layer_1" xmlns="http://www.w3.org/2000/svg" xmlns:xlink="http://www.w3.org/1999/xlink" x="0px" y="0px"
	 viewBox="-333 335 32 32" enable-background="new -333 335 32 32" xml:space="preserve">
<g>
	<path fill="#FCFCFC" d="M-316,337c-8.3,0-15,6.7-15,15s6.7,15,15,15s15-6.7,15-15S-307.7,337-316,337z M-308.8,350.2l-6.5,6.5
		c-0.2,0.2-0.5,0.3-0.7,0.3c-0.3,0-0.5-0.1-0.7-0.3l-6.5-6.5c-0.4-0.4-0.4-1,0-1.4c0.4-0.4,1-0.4,1.4,0l5.8,5.8l5.8-5.8
		c0.4-0.4,1-0.4,1.4,0C-308.4,349.2-308.4,349.8-308.8,350.2z"/>
</g>
</svg>
