<?xml version="1.0" encoding="utf-8"?>
<!-- Generator: Adobe Illustrator 18.1.1, SVG Export Plug-In . SVG Version: 6.00 Build 0)  -->
<svg version="1.1" id="Layer_1" xmlns="http://www.w3.org/2000/svg" xmlns:xlink="http://www.w3.org/1999/xlink" x="0px" y="0px"
	 viewBox="-333 335 32 32" enable-background="new -333 335 32 32" xml:space="preserve">
<g>
	<path fill="#FFFFFF" d="M-310.2,348.8l-5.8,5.8l-5.8-5.8c-0.4-0.4-1-0.4-1.4,0c-0.4,0.4-0.4,1,0,1.4l6.5,6.5
		c0.2,0.2,0.5,0.3,0.7,0.3c0.3,0,0.5-0.1,0.7-0.3l6.5-6.5c0.4-0.4,0.4-1,0-1.4C-309.2,348.4-309.8,348.4-310.2,348.8z M-315.9,337.1
		c-8.2,0-14.9,6.7-14.9,14.9c0,8.2,6.7,14.9,14.9,14.9c8.2,0,14.9-6.7,14.9-14.9C-301,343.8-307.7,337.1-315.9,337.1z M-315.9,365
		c-7.1,0-12.9-5.8-12.9-12.9c0-7.1,5.8-12.9,12.9-12.9c7.1,0,12.9,5.8,12.9,12.9C-303,359.2-308.8,365-315.9,365z"/>
</g>
</svg>
